PathFileType	4	(X/Y/Z)	C:/Users/beibeiliu/ov580/test_trc/User3\sequence.27_training_dense_right.trc
DataRate	CameraRate	NumFrames	NumMarkers	Units	OrigDataRate	OrigDataStartFrame	OrigNumFrames
120	120	12	19	mm	120	35	276
Frame#	Time	ThumbCMC			ThumbMCP			ThumbIP			ThumbTip			IndexMCP			IndexPIP			IndexTip			MiddleMCP			MiddlePIP			MiddleTip			RingMCP			RingPIP			RingTip			PinkyMCP			PinkyPIP			PinkyTip			BackHand1			BackHand2			BackHand3	
		X0	Y0	Z0	X1	Y1	Z1	X2	Y2	Z2	X3	Y3	Z3	X4	Y4	Z4	X5	Y5	Z5	X6	Y6	Z6	X7	Y7	Z7	X8	Y8	Z8	X9	Y9	Z9	X10	Y10	Z10	X11	Y11	Z11	X12	Y12	Z12	X13	Y13	Z13	X14	Y14	Z14	X15	Y15	Z15	X16	Y16	Z16	X17	Y17	Z17	X18	Y18	Z18	
34	0.283333	158.966	-16.9274	17.2748	153.491	-36.0569	-15.0888	167.869	-48.385	-34.9453	193.445	-58.152	-49.27	186.026	5.43483	-49.9804	184.164	4.48051	-79.4792	189.746	1.1444	-98.5782	201.514	1.96205	-56.6923	203.303	-4.20631	-79.8256	205.181	-11.9446	-112.066	213.242	-26.9211	-42.7594	204.854	-54.5871	-42.0504	188.391	-53.4058	-9.24425	223.172	-39.3213	-25.6079	206.268	-58.8618	-15.9856	193.443	-46.9242	8.15025	219.31	2.68269	9.32648	213.864	1.40316	39.4378	183.915	11.3877	16.9852	
35	0.291667	160.12	-16.6549	20.3238	156.32	-36.2197	-15.6966	168.331	-51.6467	-37.8698	194.492	-58.8107	-42.9255	186.067	3.56916	-54.8815	190.73	-3.02418	-75.4991	191.984	-5.29047	-99.638	207.33	-2.89443	-58.1784	208.173	-10.3863	-81.9409	211.487	-19.9743	-109.841	218.96	-31.0942	-40.1403	202.735	-59.4964	-39.2436	192.111	-56.1422	-5.75342	224.052	-43.7594	-25.776	208.452	-60.0593	-17.1415	195.854	-48.1942	9.31906	218.944	4.50019	7.50679	215.841	1.99628	41.1482	188.965	11.3154	17.278	
36	0.3	160.927	-15.8125	16.3288	155.389	-37.1507	-10.7523	171.389	-53.8913	-38.2923	194.261	-63.8122	-41.78	191.095	-2.46412	-53.5055	189.597	-7.72149	-77.7463	196.175	-15.3855	-98.5858	205.661	-7.82942	-58.2452	208.73	-17.9907	-80.3879	208.116	-28.065	-112.274	217.615	-34.8428	-39.4155	203.226	-63.8227	-35.0026	190.331	-57.6024	-5.42168	227.698	-46.2634	-20.9381	204.898	-65.0826	-9.68951	194.001	-52.8383	9.68457	219.943	0.0389815	6.63901	216.47	2.85058	34.7321	188.746	10.4581	18.3684	
37	0.308333	160.823	-15.1648	20.9924	150.975	-37.3755	-9.51656	166.811	-57.2957	-35.7235	190.72	-68.2928	-37.9524	189.409	-7.64972	-52.2963	191.677	-15.4263	-76.1287	190.668	-22.586	-101.439	207.875	-14.3007	-57.6778	209.531	-26.7404	-80.7711	208.175	-40.7712	-109.8	216.242	-40.2317	-38.6538	198.591	-68.2151	-31.5804	185.69	-60.6442	-4.53092	223.635	-53.613	-19.4101	201.254	-67.2045	-6.53559	190.874	-49.5347	14.3686	222.663	-1.86004	6.85468	221.649	0.748263	34.3631	191.069	9.56332	11.8134	
38	0.316667	158.253	-11.4767	21.7901	147.177	-34.8772	-7.12151	159.488	-57.0574	-31.4923	179.664	-71.3868	-33.649	187.392	-12.1167	-55.8469	185.654	-20.5218	-79.1875	186.71	-33.1556	-101.194	206.77	-20.2218	-55.8835	201.257	-31.5101	-80.1701	196.566	-48.673	-109.302	207.466	-47.101	-39.1688	194.098	-71.411	-31.0158	179.138	-61.1418	-1.44215	217.999	-55.4395	-18.0687	198.528	-70.3627	-5.66359	187.472	-52.8646	15.2976	220.464	-6.81269	5.63016	218.391	-0.646765	32.6238	192.516	10.2535	11.9757	
39	0.325	153.642	-5.76556	21.2208	144.382	-30.8623	-8.1981	153.001	-53.5403	-26.7104	168.59	-70.9195	-29.3133	181.769	-10.4695	-51.0884	179.766	-20.7211	-76.9056	177.508	-35.5665	-99.5741	198.746	-22.0732	-58.9061	194.712	-38.5594	-82.5196	185.708	-59.743	-105.448	201.151	-53.0489	-37.5453	180.459	-71.8075	-27.5427	170.971	-58.0701	2.35457	206.99	-57.9282	-19.1746	185.776	-70.4151	-3.23774	181.063	-50.4604	19.454	221.765	-12.2359	4.00154	220.51	-5.75368	35.4572	192.483	10.905	10.7447	
40	0.333333	154.822	-0.212086	19.0116	138.464	-24.1431	-2.95015	138.949	-49.3318	-22.4388	156.871	-68.4222	-26.6622	178.827	-11.1185	-52.3897	175.356	-25.7378	-75.2319	168.197	-42.5563	-98.292	196.139	-28.038	-55.9345	184.408	-41.3019	-77.9973	167.233	-66.1752	-98.2091	193.472	-53.8606	-32.9965	167.843	-70.3119	-24.496	162.295	-57.9807	5.88191	198.172	-65.1957	-16.1071	174.464	-70.8285	-0.303217	172.855	-51.9378	22.0444	216.999	-15.9955	2.05326	220.628	-8.12104	32.7612	195.221	7.03627	11.6759	
41	0.341667	157.894	5.33609	20.4643	132.628	-13.9413	0.790195	131.494	-41.2519	-18.761	143.213	-66.1262	-22.8223	173.36	-12.0711	-53.1841	164.858	-27.323	-74.953	153.598	-40.0074	-92.7436	185.642	-32.0237	-58.2424	171.381	-49.8928	-76.3088	143.72	-72.4355	-84.4357	177.305	-57.5721	-32.3052	152.238	-65.8828	-21.9642	153.263	-47.9088	10.7996	185.577	-66.7605	-13.3161	158.305	-63.8319	1.29572	162.583	-48.9421	23.3963	215.28	-22.3757	3.22722	217.075	-16.1256	29.5944	195.407	8.51713	10.2578	
42	0.35	161.546	10.4022	19.267	132.226	-4.38999	3.97867	120.458	-31.9698	-13.9338	127.8	-59.6389	-16.4732	166.807	-19.1796	-52.947	154.2	-29.2482	-69.8889	137.957	-41.3334	-86.2285	174.908	-39.6981	-55.0243	155.523	-52.0444	-69.8155	119.733	-65.4037	-69.7899	162.412	-53.0673	-28.0136	135.812	-57.8295	-12.7111	139.898	-38.6112	12.4146	168.225	-67.5241	-8.84524	144.532	-62.0665	6.06942	153.769	-39.9089	27.3176	208.737	-29.354	2.84761	215.037	-22.9355	28.5782	196.939	3.74978	5.23532	
43	0.358333	162.569	17.7068	19.5471	131.577	3.72772	7.38476	113.663	-19.8086	-4.1791	114.126	-45.3516	-4.53826	159.498	-18.2276	-46.5118	137.623	-26.9352	-69.4878	120.362	-35.5659	-80.0969	161.04	-38.0009	-46.7691	133.32	-46.0828	-64.1496	99.4459	-51.4878	-59.1985	149.005	-50.9561	-22.4203	121.494	-45.176	-3.69996	135.3	-30.3361	20.4206	149.343	-63.7986	-3.33444	131.244	-48.8487	11.6672	148.025	-31.935	30.0984	199.548	-34.2538	3.89973	210.589	-27.0765	27.9515	198.045	-1.93575	8.33699	
44	0.366667	165.166	16.3828	19.0598	131.79	13.3873	11.5413	108.403	-7.01639	3.89917	102.659	-33.4661	5.47709	146.746	-16.4483	-47.7301	126.867	-19.6979	-61.4952	103.061	-29.9557	-70.7204	144.082	-36.0245	-43.8949	115.792	-42.3735	-55.0162	81.4235	-38.6093	-53.006	130.069	-44.182	-15.2423	109.925	-30.6637	4.10847	130.129	-17.6944	24.5717	135.416	-51.4557	2.83509	121.292	-35.1895	21.2466	143.146	-20.6913	30.7957	188.023	-40.695	2.38382	203.214	-31.2596	32.7205	195.713	-3.77511	7.04598	
45	0.375	168.41	20.3898	20.0505	131.247	22.3336	12.0605	103.1	7.40903	6.54489	92.9879	-19.8877	11.5655	141.807	-12.5867	-39.9559	117.361	-10.4072	-56.2994	91.1214	-13.9786	-66.1439	133.169	-28.955	-38.9438	107.66	-28.0323	-50.3237	72.366	-24.4928	-53.3328	123.677	-33.0385	-10.0311	103.448	-15.1832	9.34687	127.492	-3.51795	28.0236	119.786	-41.9972	10.8753	113.47	-21.4564	23.7014	140.225	-12.5036	40.1354	177.565	-38.1292	7.20386	197.009	-36.8108	34.9044	191.877	-5.72542	3.55875	
